<svg xmlns="http://www.w3.org/2000/svg" xmlns:xlink="http://www.w3.org/1999/xlink" width="350.742" height="102.93" viewBox="0 0 350.742 102.93">
  <defs>
    <filter id="Path_5006" x="0" y="0" width="350.742" height="102.93" filterUnits="userSpaceOnUse">
      <feOffset input="SourceAlpha"/>
      <feGaussianBlur stdDeviation="1" result="blur"/>
      <feFlood flood-opacity="0.251"/>
      <feComposite operator="in" in2="blur"/>
      <feComposite in="SourceGraphic"/>
    </filter>
  </defs>
  <g transform="matrix(1, 0, 0, 1, 0, 0)" filter="url(#Path_5006)">
    <path id="Path_5006-2" data-name="Path 5006" d="M6639.157,780.792h-89.246a24.19,24.19,0,0,1-22.016-14.22,40.658,40.658,0,0,0-73.888,0,24.19,24.19,0,0,1-22.016,14.22h-89.246a24.165,24.165,0,0,1-24.165-24.165v35.158a48.036,48.036,0,0,0,48.035,48.036h248.671a48.035,48.035,0,0,0,48.036-48.036V756.627A24.165,24.165,0,0,1,6639.157,780.792Z" transform="translate(-6315.58 -739.89)"/>
  </g>
</svg>
